<mxfile host="Electron" modified="2023-12-20T16:42:11.796Z" agent="Mozilla/5.0 (Windows NT 10.0; Win64; x64) AppleWebKit/537.36 (KHTML, like Gecko) draw.io/22.1.2 Chrome/114.0.5735.289 Electron/25.9.4 Safari/537.36" etag="SqVmtxFWcFbEeK1mhPIp" version="22.1.2" type="device">
  <diagram name="Page-1" id="Y1Ff2M6tBXTCDHTPnII-">
    <mxGraphModel dx="1017" dy="2383" grid="1" gridSize="10" guides="1" tooltips="1" connect="1" arrows="1" fold="1" page="1" pageScale="1" pageWidth="827" pageHeight="1169" math="0" shadow="0">
      <root>
        <mxCell id="0" />
        <mxCell id="1" parent="0" />
        <mxCell id="YbYS3XvpRyIwKWTUJV1s-1" value="AWS Cloud" style="rounded=0;whiteSpace=wrap;html=1;verticalAlign=top;align=left;spacing=2;spacingLeft=6;strokeWidth=3;" parent="1" vertex="1">
          <mxGeometry x="100" y="-60" width="760" height="790" as="geometry" />
        </mxCell>
        <mxCell id="YbYS3XvpRyIwKWTUJV1s-8" style="edgeStyle=orthogonalEdgeStyle;rounded=0;orthogonalLoop=1;jettySize=auto;html=1;exitX=0.5;exitY=0.5;exitDx=0;exitDy=0;exitPerimeter=0;entryX=0;entryY=0.5;entryDx=0;entryDy=0;" parent="1" source="YbYS3XvpRyIwKWTUJV1s-2" target="YbYS3XvpRyIwKWTUJV1s-7" edge="1">
          <mxGeometry relative="1" as="geometry" />
        </mxCell>
        <mxCell id="YbYS3XvpRyIwKWTUJV1s-2" value="" style="shape=umlActor;verticalLabelPosition=bottom;verticalAlign=top;html=1;" parent="1" vertex="1">
          <mxGeometry x="50" y="330" width="30" height="60" as="geometry" />
        </mxCell>
        <mxCell id="YbYS3XvpRyIwKWTUJV1s-20" style="edgeStyle=orthogonalEdgeStyle;rounded=0;orthogonalLoop=1;jettySize=auto;html=1;exitX=0.5;exitY=1;exitDx=0;exitDy=0;entryX=0;entryY=0.5;entryDx=0;entryDy=0;" parent="1" source="YbYS3XvpRyIwKWTUJV1s-7" target="YbYS3XvpRyIwKWTUJV1s-12" edge="1">
          <mxGeometry relative="1" as="geometry" />
        </mxCell>
        <mxCell id="YbYS3XvpRyIwKWTUJV1s-7" value="IAM" style="whiteSpace=wrap;html=1;aspect=fixed;fillColor=#f8cecc;strokeColor=#b85450;" parent="1" vertex="1">
          <mxGeometry x="120" y="320" width="80" height="80" as="geometry" />
        </mxCell>
        <mxCell id="YbYS3XvpRyIwKWTUJV1s-10" value="" style="shape=curlyBracket;whiteSpace=wrap;html=1;rounded=1;labelPosition=left;verticalLabelPosition=middle;align=right;verticalAlign=middle;" parent="1" vertex="1">
          <mxGeometry x="230" y="-40" width="20" height="750" as="geometry" />
        </mxCell>
        <mxCell id="YbYS3XvpRyIwKWTUJV1s-11" style="edgeStyle=orthogonalEdgeStyle;rounded=0;orthogonalLoop=1;jettySize=auto;html=1;exitX=1;exitY=0.5;exitDx=0;exitDy=0;entryX=0.1;entryY=0.5;entryDx=0;entryDy=0;entryPerimeter=0;" parent="1" source="YbYS3XvpRyIwKWTUJV1s-7" target="YbYS3XvpRyIwKWTUJV1s-10" edge="1">
          <mxGeometry relative="1" as="geometry">
            <Array as="points">
              <mxPoint x="232" y="360" />
            </Array>
          </mxGeometry>
        </mxCell>
        <mxCell id="YbYS3XvpRyIwKWTUJV1s-17" style="edgeStyle=orthogonalEdgeStyle;rounded=0;orthogonalLoop=1;jettySize=auto;html=1;exitX=1;exitY=0.5;exitDx=0;exitDy=0;entryX=0;entryY=0.5;entryDx=0;entryDy=0;" parent="1" source="YbYS3XvpRyIwKWTUJV1s-12" target="YbYS3XvpRyIwKWTUJV1s-21" edge="1">
          <mxGeometry relative="1" as="geometry" />
        </mxCell>
        <mxCell id="YbYS3XvpRyIwKWTUJV1s-12" value="CODE&lt;br&gt;COMMIT" style="whiteSpace=wrap;html=1;aspect=fixed;fillColor=#e1d5e7;strokeColor=#9673a6;" parent="1" vertex="1">
          <mxGeometry x="277" y="630" width="80" height="80" as="geometry" />
        </mxCell>
        <mxCell id="YbYS3XvpRyIwKWTUJV1s-18" style="edgeStyle=orthogonalEdgeStyle;rounded=0;orthogonalLoop=1;jettySize=auto;html=1;exitX=1;exitY=0.5;exitDx=0;exitDy=0;entryX=0;entryY=0.5;entryDx=0;entryDy=0;" parent="1" source="YbYS3XvpRyIwKWTUJV1s-13" target="YbYS3XvpRyIwKWTUJV1s-14" edge="1">
          <mxGeometry relative="1" as="geometry" />
        </mxCell>
        <mxCell id="YbYS3XvpRyIwKWTUJV1s-13" value="CODE&lt;br&gt;PIPELINE" style="whiteSpace=wrap;html=1;aspect=fixed;fillColor=#e1d5e7;strokeColor=#9673a6;" parent="1" vertex="1">
          <mxGeometry x="437" y="630" width="80" height="80" as="geometry" />
        </mxCell>
        <mxCell id="YbYS3XvpRyIwKWTUJV1s-19" style="edgeStyle=orthogonalEdgeStyle;rounded=0;orthogonalLoop=1;jettySize=auto;html=1;exitX=1;exitY=0.5;exitDx=0;exitDy=0;entryX=0;entryY=0.5;entryDx=0;entryDy=0;" parent="1" source="YbYS3XvpRyIwKWTUJV1s-14" target="YbYS3XvpRyIwKWTUJV1s-15" edge="1">
          <mxGeometry relative="1" as="geometry" />
        </mxCell>
        <mxCell id="YbYS3XvpRyIwKWTUJV1s-25" style="edgeStyle=orthogonalEdgeStyle;rounded=0;orthogonalLoop=1;jettySize=auto;html=1;exitX=0.5;exitY=0;exitDx=0;exitDy=0;entryX=0.5;entryY=1;entryDx=0;entryDy=0;" parent="1" source="YbYS3XvpRyIwKWTUJV1s-14" target="YbYS3XvpRyIwKWTUJV1s-24" edge="1">
          <mxGeometry relative="1" as="geometry">
            <Array as="points">
              <mxPoint x="640" y="610" />
              <mxPoint x="800" y="610" />
            </Array>
          </mxGeometry>
        </mxCell>
        <mxCell id="YbYS3XvpRyIwKWTUJV1s-14" value="CODE&lt;br&gt;BUILD" style="whiteSpace=wrap;html=1;aspect=fixed;fillColor=#e1d5e7;strokeColor=#9673a6;" parent="1" vertex="1">
          <mxGeometry x="600" y="630" width="80" height="80" as="geometry" />
        </mxCell>
        <mxCell id="YbYS3XvpRyIwKWTUJV1s-15" value="CODE&lt;br&gt;PIPELINE" style="whiteSpace=wrap;html=1;aspect=fixed;fillColor=#e1d5e7;strokeColor=#9673a6;" parent="1" vertex="1">
          <mxGeometry x="760" y="630" width="80" height="80" as="geometry" />
        </mxCell>
        <mxCell id="YbYS3XvpRyIwKWTUJV1s-16" value="GITHUB" style="whiteSpace=wrap;html=1;aspect=fixed;fillColor=#e1d5e7;strokeColor=#9673a6;" parent="1" vertex="1">
          <mxGeometry x="357" y="750" width="83" height="83" as="geometry" />
        </mxCell>
        <mxCell id="YbYS3XvpRyIwKWTUJV1s-22" style="edgeStyle=orthogonalEdgeStyle;rounded=0;orthogonalLoop=1;jettySize=auto;html=1;exitX=1;exitY=0.5;exitDx=0;exitDy=0;entryX=0;entryY=0.5;entryDx=0;entryDy=0;" parent="1" source="YbYS3XvpRyIwKWTUJV1s-21" target="YbYS3XvpRyIwKWTUJV1s-13" edge="1">
          <mxGeometry relative="1" as="geometry" />
        </mxCell>
        <mxCell id="YbYS3XvpRyIwKWTUJV1s-23" style="edgeStyle=orthogonalEdgeStyle;rounded=0;orthogonalLoop=1;jettySize=auto;html=1;exitX=0.5;exitY=1;exitDx=0;exitDy=0;entryX=0.5;entryY=0;entryDx=0;entryDy=0;startArrow=classic;startFill=1;" parent="1" source="YbYS3XvpRyIwKWTUJV1s-21" target="YbYS3XvpRyIwKWTUJV1s-16" edge="1">
          <mxGeometry relative="1" as="geometry" />
        </mxCell>
        <mxCell id="YbYS3XvpRyIwKWTUJV1s-21" value="" style="ellipse;whiteSpace=wrap;html=1;aspect=fixed;" parent="1" vertex="1">
          <mxGeometry x="388.5" y="660" width="20" height="20" as="geometry" />
        </mxCell>
        <mxCell id="YbYS3XvpRyIwKWTUJV1s-24" value="ECR" style="whiteSpace=wrap;html=1;aspect=fixed;fillColor=#ffe6cc;strokeColor=#d79b00;" parent="1" vertex="1">
          <mxGeometry x="760" y="480" width="80" height="80" as="geometry" />
        </mxCell>
        <mxCell id="YbYS3XvpRyIwKWTUJV1s-26" value="PROJECT VPC" style="rounded=0;whiteSpace=wrap;html=1;verticalAlign=top;align=left;spacing=2;spacingLeft=6;strokeWidth=3;" parent="1" vertex="1">
          <mxGeometry x="277" y="120" width="403" height="450" as="geometry" />
        </mxCell>
        <mxCell id="YbYS3XvpRyIwKWTUJV1s-27" value="ELB" style="whiteSpace=wrap;html=1;aspect=fixed;fillColor=#dae8fc;strokeColor=#6c8ebf;" parent="1" vertex="1">
          <mxGeometry x="440" y="200" width="80" height="80" as="geometry" />
        </mxCell>
        <mxCell id="YbYS3XvpRyIwKWTUJV1s-42" style="edgeStyle=orthogonalEdgeStyle;rounded=0;orthogonalLoop=1;jettySize=auto;html=1;exitX=0.5;exitY=1;exitDx=0;exitDy=0;entryX=0.5;entryY=0;entryDx=0;entryDy=0;" parent="1" source="YbYS3XvpRyIwKWTUJV1s-28" target="YbYS3XvpRyIwKWTUJV1s-27" edge="1">
          <mxGeometry relative="1" as="geometry" />
        </mxCell>
        <mxCell id="YbYS3XvpRyIwKWTUJV1s-28" value="IG" style="whiteSpace=wrap;html=1;aspect=fixed;fillColor=#dae8fc;strokeColor=#6c8ebf;" parent="1" vertex="1">
          <mxGeometry x="440" y="80" width="80" height="80" as="geometry" />
        </mxCell>
        <mxCell id="YbYS3XvpRyIwKWTUJV1s-31" value="ECS EC2" style="rounded=0;whiteSpace=wrap;html=1;verticalAlign=top;align=left;spacing=2;spacingLeft=6;strokeWidth=1;fillColor=#d5e8d4;strokeColor=#82b366;" parent="1" vertex="1">
          <mxGeometry x="300" y="320" width="360" height="230" as="geometry" />
        </mxCell>
        <mxCell id="YbYS3XvpRyIwKWTUJV1s-33" value="REGION X" style="rounded=0;whiteSpace=wrap;html=1;verticalAlign=top;align=left;spacing=2;spacingLeft=6;strokeWidth=1;fillColor=#d5e8d4;strokeColor=#82b366;" parent="1" vertex="1">
          <mxGeometry x="320" y="350" width="290" height="180" as="geometry" />
        </mxCell>
        <mxCell id="YbYS3XvpRyIwKWTUJV1s-34" value="SERVICE X" style="rounded=0;whiteSpace=wrap;html=1;verticalAlign=top;align=left;spacing=2;spacingLeft=6;strokeWidth=1;fillColor=#d5e8d4;strokeColor=#82b366;" parent="1" vertex="1">
          <mxGeometry x="340" y="380" width="220" height="130" as="geometry" />
        </mxCell>
        <mxCell id="YbYS3XvpRyIwKWTUJV1s-35" value="&lt;font style=&quot;font-size: 37px;&quot;&gt;&lt;span&gt;...&lt;/span&gt;&lt;/font&gt;" style="text;html=1;strokeColor=none;fillColor=none;align=center;verticalAlign=middle;whiteSpace=wrap;rounded=0;fontStyle=0" parent="1" vertex="1">
          <mxGeometry x="560" y="470" width="50" height="40" as="geometry" />
        </mxCell>
        <mxCell id="YbYS3XvpRyIwKWTUJV1s-36" value="&lt;font style=&quot;font-size: 37px;&quot;&gt;&lt;span&gt;...&lt;/span&gt;&lt;/font&gt;" style="text;html=1;strokeColor=none;fillColor=none;align=center;verticalAlign=middle;whiteSpace=wrap;rounded=0;fontStyle=0" parent="1" vertex="1">
          <mxGeometry x="610" y="490" width="50" height="40" as="geometry" />
        </mxCell>
        <mxCell id="YbYS3XvpRyIwKWTUJV1s-37" value="INSTANCE X" style="rounded=0;whiteSpace=wrap;html=1;verticalAlign=top;align=left;spacing=2;spacingLeft=6;strokeWidth=1;fillColor=#d5e8d4;strokeColor=#82b366;" parent="1" vertex="1">
          <mxGeometry x="360" y="410" width="150" height="80" as="geometry" />
        </mxCell>
        <mxCell id="YbYS3XvpRyIwKWTUJV1s-38" value="TASK X" style="rounded=0;whiteSpace=wrap;html=1;verticalAlign=top;align=left;spacing=2;spacingLeft=6;strokeWidth=1;fillColor=#d5e8d4;strokeColor=#82b366;" parent="1" vertex="1">
          <mxGeometry x="380" y="440" width="80" height="30" as="geometry" />
        </mxCell>
        <mxCell id="YbYS3XvpRyIwKWTUJV1s-39" value="&lt;font style=&quot;font-size: 37px;&quot;&gt;&lt;span&gt;...&lt;/span&gt;&lt;/font&gt;" style="text;html=1;strokeColor=none;fillColor=none;align=center;verticalAlign=middle;whiteSpace=wrap;rounded=0;fontStyle=0" parent="1" vertex="1">
          <mxGeometry x="510" y="450" width="50" height="40" as="geometry" />
        </mxCell>
        <mxCell id="YbYS3XvpRyIwKWTUJV1s-40" value="&lt;font style=&quot;font-size: 37px;&quot;&gt;&lt;span&gt;...&lt;/span&gt;&lt;/font&gt;" style="text;html=1;strokeColor=none;fillColor=none;align=center;verticalAlign=middle;whiteSpace=wrap;rounded=0;fontStyle=0" parent="1" vertex="1">
          <mxGeometry x="460" y="430" width="50" height="40" as="geometry" />
        </mxCell>
        <mxCell id="YbYS3XvpRyIwKWTUJV1s-43" style="edgeStyle=orthogonalEdgeStyle;rounded=0;orthogonalLoop=1;jettySize=auto;html=1;exitX=0;exitY=0.5;exitDx=0;exitDy=0;entryX=0.5;entryY=1;entryDx=0;entryDy=0;" parent="1" source="YbYS3XvpRyIwKWTUJV1s-24" target="YbYS3XvpRyIwKWTUJV1s-38" edge="1">
          <mxGeometry relative="1" as="geometry">
            <Array as="points">
              <mxPoint x="720" y="520" />
              <mxPoint x="720" y="590" />
              <mxPoint x="420" y="590" />
            </Array>
          </mxGeometry>
        </mxCell>
        <mxCell id="YbYS3XvpRyIwKWTUJV1s-45" value="S3" style="rounded=0;whiteSpace=wrap;html=1;verticalAlign=top;align=left;spacing=2;spacingLeft=6;strokeWidth=3;" parent="1" vertex="1">
          <mxGeometry x="700" y="70" width="140" height="390" as="geometry" />
        </mxCell>
        <mxCell id="YbYS3XvpRyIwKWTUJV1s-47" value="BUCKET" style="whiteSpace=wrap;html=1;aspect=fixed;fillColor=#ffe6cc;strokeColor=#d79b00;" parent="1" vertex="1">
          <mxGeometry x="730" y="190" width="80" height="80" as="geometry" />
        </mxCell>
        <mxCell id="YbYS3XvpRyIwKWTUJV1s-48" value="BUCKET" style="whiteSpace=wrap;html=1;aspect=fixed;fillColor=#ffe6cc;strokeColor=#d79b00;" parent="1" vertex="1">
          <mxGeometry x="730" y="90" width="80" height="80" as="geometry" />
        </mxCell>
        <mxCell id="YbYS3XvpRyIwKWTUJV1s-49" value="&lt;font style=&quot;font-size: 37px;&quot;&gt;&lt;span&gt;...&lt;/span&gt;&lt;/font&gt;" style="text;html=1;strokeColor=none;fillColor=none;align=center;verticalAlign=middle;whiteSpace=wrap;rounded=0;fontStyle=0" parent="1" vertex="1">
          <mxGeometry x="745" y="280" width="50" height="40" as="geometry" />
        </mxCell>
        <mxCell id="YbYS3XvpRyIwKWTUJV1s-51" value="" style="edgeStyle=orthogonalEdgeStyle;rounded=0;orthogonalLoop=1;jettySize=auto;html=1;entryX=0.5;entryY=0;entryDx=0;entryDy=0;" parent="1" source="YbYS3XvpRyIwKWTUJV1s-50" target="YbYS3XvpRyIwKWTUJV1s-56" edge="1">
          <mxGeometry relative="1" as="geometry" />
        </mxCell>
        <mxCell id="YbYS3XvpRyIwKWTUJV1s-50" value="" style="shape=umlActor;verticalLabelPosition=bottom;verticalAlign=top;html=1;" parent="1" vertex="1">
          <mxGeometry x="465" y="-140" width="30" height="60" as="geometry" />
        </mxCell>
        <mxCell id="YbYS3XvpRyIwKWTUJV1s-54" value="DEV" style="text;html=1;strokeColor=none;fillColor=none;align=center;verticalAlign=middle;whiteSpace=wrap;rounded=0;" parent="1" vertex="1">
          <mxGeometry x="35" y="390" width="60" height="30" as="geometry" />
        </mxCell>
        <mxCell id="YbYS3XvpRyIwKWTUJV1s-55" value="USER" style="text;html=1;strokeColor=none;fillColor=none;align=center;verticalAlign=middle;whiteSpace=wrap;rounded=0;" parent="1" vertex="1">
          <mxGeometry x="480" y="-110" width="60" height="30" as="geometry" />
        </mxCell>
        <mxCell id="YbYS3XvpRyIwKWTUJV1s-57" style="edgeStyle=orthogonalEdgeStyle;rounded=0;orthogonalLoop=1;jettySize=auto;html=1;exitX=0.5;exitY=1;exitDx=0;exitDy=0;entryX=0.5;entryY=0;entryDx=0;entryDy=0;" parent="1" source="YbYS3XvpRyIwKWTUJV1s-56" target="YbYS3XvpRyIwKWTUJV1s-28" edge="1">
          <mxGeometry relative="1" as="geometry" />
        </mxCell>
        <mxCell id="YbYS3XvpRyIwKWTUJV1s-56" value="ROUTE 53" style="whiteSpace=wrap;html=1;aspect=fixed;fillColor=#dae8fc;strokeColor=#6c8ebf;" parent="1" vertex="1">
          <mxGeometry x="440" y="-40" width="80" height="80" as="geometry" />
        </mxCell>
        <mxCell id="oL4n0T94HJxAm9dFQ55k-1" style="edgeStyle=orthogonalEdgeStyle;rounded=0;orthogonalLoop=1;jettySize=auto;html=1;exitX=0;exitY=0.5;exitDx=0;exitDy=0;entryX=0;entryY=0.25;entryDx=0;entryDy=0;startArrow=classic;startFill=1;" parent="1" source="YbYS3XvpRyIwKWTUJV1s-45" target="YbYS3XvpRyIwKWTUJV1s-40" edge="1">
          <mxGeometry relative="1" as="geometry">
            <mxPoint x="409" y="700" as="sourcePoint" />
            <mxPoint x="409" y="770" as="targetPoint" />
            <Array as="points">
              <mxPoint x="600" y="265" />
              <mxPoint x="600" y="310" />
              <mxPoint x="460" y="310" />
            </Array>
          </mxGeometry>
        </mxCell>
        <mxCell id="oL4n0T94HJxAm9dFQ55k-3" style="edgeStyle=orthogonalEdgeStyle;rounded=0;orthogonalLoop=1;jettySize=auto;html=1;exitX=0.5;exitY=1;exitDx=0;exitDy=0;entryX=0.5;entryY=0;entryDx=0;entryDy=0;" parent="1" source="YbYS3XvpRyIwKWTUJV1s-27" target="YbYS3XvpRyIwKWTUJV1s-37" edge="1">
          <mxGeometry relative="1" as="geometry">
            <Array as="points">
              <mxPoint x="480" y="290" />
              <mxPoint x="435" y="290" />
            </Array>
          </mxGeometry>
        </mxCell>
      </root>
    </mxGraphModel>
  </diagram>
</mxfile>
